<svg id="Layer_1" xmlns="http://www.w3.org/2000/svg" width="500" height="24.1" viewBox="-393.5 288.7 500 24.1" preserveAspectRatio="none"><style>.st0{opacity:.15;fill:#212221;enable-background:new}</style><path class="st0" d="M104.6 288.7c-1.1 0-2 .9-2 2v8.2H35.7v-8.2c0-1.1-.9-2-2-2s-2 .9-2 2v8.2h-66.9v-8.2c0-1.1-.9-2-2-2s-2 .9-2 2v8.2h-66.9v-8.2c0-1.1-.9-2-2-2s-2 .9-2 2v8.2H-177v-8.2c0-1.1-.9-2-2-2s-2 .9-2 2v8.2h-66.9v-8.2c0-1.1-.9-2-2-2s-2 .9-2 2v8.2h-66.9v-8.2c0-1.1-.9-2-2-2s-2 .9-2 2v8.2h-66.9v-8.2c0-1.1-.9-2-2-2s-2 .9-2 2V311c0 1.1.9 2 2 2s2-.9 2-2v-8.2h66.9v8.2c0 1.1.9 2 2 2s2-.9 2-2v-8.2h66.9v8.2c0 1.1.9 2 2 2s2-.9 2-2v-8.2h66.9v8.2c0 1.1.9 2 2 2s2-.9 2-2v-8.2h66.9v8.2c0 1.1.9 2 2 2s2-.9 2-2v-8.2h66.9v8.2c0 1.1.9 2 2 2s2-.9 2-2v-8.2h66.9v8.2c0 1.1.9 2 2 2s2-.9 2-2v-8.2h66.9v8.2c0 1.1.9 2 2 2s2-.9 2-2v-20.3c-.1-1.1-.9-2-2-2z"/></svg>